<?xml version="1.0" encoding="UTF-8" standalone="no"?>
<!-- Created with Inkscape (http://www.inkscape.org/) -->

<svg
   version="1.1"
   id="svg1"
   width="848"
   height="578"
   viewBox="0 0 848 578"
   xmlns="http://www.w3.org/2000/svg"
   xmlns:svg="http://www.w3.org/2000/svg">
  <defs
     id="defs1" />
  <g
     id="g1">
    <path
       style="fill:#000000"
       d="m 5.9113497,574.17011 c 0,-0.25993 36.8203813,-64.69014 81.7147193,-142.39271 C 132.52041,354.07483 169.25214,290.05 169.25214,289.5 c 0,-0.55 -36.73173,-64.57483 -81.626071,-142.2774 C 42.731731,69.520026 6,5.7325258 6,5.4725973 6,5.2126688 28.8375,5.002965 56.75,5.0065889 l 50.75,0.00659 56.5,97.9032911 c 31.075,53.84682 56.71445,97.6919 56.97655,97.43353 0.2621,-0.25837 25.7297,-44.20532 56.59466,-97.65988 L 333.68932,5.5 384.89945,5.2408892 C 427.82104,5.0237164 435.97932,5.2015917 435.30479,6.3398778 434.86215,7.0868325 360.925,135.11299 271,290.84244 l -163.5,283.14446 -50.75,0.007 c -27.9125,0.003 -50.8386503,0.43614 -50.8386503,0.17621 z M 210.28619,572.73433 C 210.5699,572.04683 284.36314,444.15 374.25202,288.5 L 537.68634,5.5 588.89796,5.2408892 C 631.8208,5.0237164 639.97932,5.2015915 639.30479,6.3398778 638.86215,7.0868325 564.925,135.11299 475,290.84244 l -163.5,283.14446 -50.85699,0.007 c -40.29607,0.005 -51.12742,0.14969 -50.96725,-0.14322 z m 204.01567,0.0157 c 0.28371,-0.6875 74.06128,-128.6 163.95016,-284.25 L 741.68634,5.5 792.89796,5.2408892 C 835.8208,5.0237164 843.97932,5.2015915 843.30479,6.3398778 842.86215,7.0868325 768.925,135.11299 679,290.84244 l -163.5,283.14446 -50.85699,0.007 c -40.29607,0.005 -50.95378,0.009 -50.9854,-0.18316 z"
       id="path1" />
  </g>
</svg>
